<?xml version="1.0" encoding="utf-8"?>
<!-- Uploaded to SVGRepo https://www.svgrepo.com -->
<svg version="1.2" baseProfile="tiny" id="_x31_" xmlns="http://www.w3.org/2000/svg" xmlns:xlink="http://www.w3.org/1999/xlink"
	 x="0px" y="0px" viewBox="-63 65 128 128" xml:space="preserve">
<path d="M-27.5,137.1h-25.6c-4.2,0-7.5,3.3-7.5,7.5s3.3,7.5,7.5,7.5h25.6c4.2,0,7.5-3.3,7.5-7.5S-23.3,137.1-27.5,137.1z M-53.1,110
	H-35V94.9h-18.1c-4.2,0-7.5,3.3-7.5,7.5C-60.7,106.7-57.3,110-53.1,110z M-27.5,158.2h-18.1c-4.2,0-7.5,3.3-7.5,7.5
	c0,4.2,3.3,7.5,7.5,7.5h18.1c4.2,0,7.5-3.3,7.5-7.5C-19.9,161.5-23.3,158.2-27.5,158.2z M28.3,113L4.9,89.6l0,0
	c-1.4-1.4-3.3-2.3-5.3-2.3h-21.1c-4.2,0-7.5,3.3-7.5,7.5v28.7c0,4.2,3.3,7.5,7.5,7.5s7.5-3.3,7.5-7.5V107l0,0c0-1.7,1.4-3,3-3
	s3,1.4,3,3l0,0l0,0c0,18.2,14.9,33.2,33.2,33.2c1.7,0,3,1.4,3,3s-1.4,3-3,3c-14.3,0-26.8-7.7-33.6-19.2c-0.9,3.2-2.9,5.9-5.6,7.7
	c0,0,0,26.7,0,30.9c0,2.7-0.9,5.4-2.3,7.5H5.7c9.3,0,17.6-4.8,22.6-12.1h36V113H28.3z M-53.1,131.1h20.4c-1.5-2.1-2.3-4.8-2.3-7.5
	V116h-18.1c-4.2,0-7.5,3.3-7.5,7.5S-57.3,131.1-53.1,131.1z"/>
</svg>
